<?xml version="1.0" encoding="UTF-8" standalone="no"?>
<svg
   version="1.1"
   id="svg2"
   width="197.33395"
   height="186.75832"
   viewBox="12.265 0.671 172.80355 123.15732"
   sodipodi:docname="Hamstro.svg"
   inkscape:version="1.1.1 (c3084ef, 2021-09-22)"
   xmlns:inkscape="http://www.inkscape.org/namespaces/inkscape"
   xmlns:sodipodi="http://sodipodi.sourceforge.net/DTD/sodipodi-0.dtd"
   xmlns="http://www.w3.org/2000/svg"
   xmlns:svg="http://www.w3.org/2000/svg">
  <defs
     id="defs8" />
  <sodipodi:namedview
     id="namedview6"
     pagecolor="#505050"
     bordercolor="#eeeeee"
     borderopacity="1"
     inkscape:pageshadow="0"
     inkscape:pageopacity="0"
     inkscape:pagecheckerboard="0"
     showgrid="false"
     inkscape:zoom="2.8991935"
     inkscape:cx="98.820584"
     inkscape:cy="100.71766"
     inkscape:window-width="1680"
     inkscape:window-height="1050"
     inkscape:window-x="0"
     inkscape:window-y="0"
     inkscape:window-maximized="0"
     inkscape:current-layer="svg2" />
  <g
     id="g8"
     transform="matrix(1.3333333,0,0,-1.3333333,2.3302967e-4,227.80724)">
    <g
       id="g10"
       transform="scale(0.1)">
      <path
         d="m 1066.88,1655.69 c -24,33.8 -53.41,63.64 -87.189,88.26 -135.222,115.09 -344.164,115.09 -479.386,0 C 124.855,1956.16 47.176,1864.14 267.254,1467.87 60.348,1297.89 42.418,1107.87 213.465,897.801 l -107.567,60.945 c -179.929,-440.465 1448.132,-440.465 1268.202,0 l -107.57,-60.945 c 171.05,210.069 153.12,400.089 -53.79,570.069 212.01,381.74 147.7,481.13 -192.95,298.19 21.22,-32.69 36.92,-69.48 47.09,-110.37 z M 954.227,1268.55 c 8.664,116.39 66.033,133.72 172.103,51.99 -62.56,22.59 -132.525,1.46 -172.103,-51.99 z m -267.36,-73.17 c -31.808,55.18 -14.105,82.71 53.133,82.62 67.684,0.09 85.176,-27.81 52.488,-83.73 -17.328,-29.64 -29.933,-48.23 -41.297,-55.79 2.168,-12.25 7.325,-23.53 14.782,-32.98 7.687,-9.74 17.859,-17.56 29.757,-22.5 11.86,-4.93 24.586,-6.61 36.961,-5.19 12.383,1.43 24.387,5.96 34.786,13.44 5.312,3.83 12.726,2.62 16.55,-2.69 3.825,-5.32 2.618,-12.73 -2.695,-16.56 -13.805,-9.93 -29.656,-15.93 -45.949,-17.81 -16.305,-1.88 -33.098,0.35 -48.762,6.86 -15.633,6.49 -29.047,16.84 -39.246,29.76 -2.988,3.79 -5.691,7.8 -8.098,12 -2.41,-4.2 -5.113,-8.21 -8.101,-12 -10.199,-12.92 -23.617,-23.27 -39.246,-29.76 -15.668,-6.51 -32.461,-8.74 -48.766,-6.86 -16.293,1.88 -32.144,7.88 -45.945,17.81 -5.313,3.83 -6.524,11.24 -2.699,16.56 3.824,5.31 11.238,6.52 16.554,2.69 10.399,-7.48 22.403,-12.01 34.785,-13.44 12.375,-1.42 25.098,0.26 36.957,5.19 11.903,4.94 22.075,12.76 29.758,22.5 7.594,9.63 12.801,21.14 14.899,33.63 -11.211,8.05 -23.629,26.8 -40.606,56.25 z m -333.195,125.16 c 106.066,81.73 163.433,64.4 172.101,-51.99 -39.582,53.45 -109.546,74.58 -172.101,51.99"
         style="fill:#f29000;fill-opacity:1;fill-rule:evenodd;stroke:none"
         id="path12" />
    </g>
  </g>
</svg>
